<!-- icon666.com - MILLIONS OF FREE VECTOR ICONS --><svg  width="128" height="128" viewBox="0 0 128 128" xmlns="http://www.w3.org/2000/svg"><g><g><circle cx="66.087" cy="14.27" fill="#979fef" r="12.523" transform="matrix(.076 -.997 .997 .076 46.82 79.077)"></circle><path d="m66.087 18.793a4.523 4.523 0 1 1 4.523-4.523 4.527 4.527 0 0 1 -4.523 4.523z" fill="#47568c"></path><g fill="#979fef"><circle cx="66.087" cy="117.904" r="8.349"></circle><circle cx="102.727" cy="29.447" r="5.218"></circle><circle cx="29.447" cy="102.727" r="9.392"></circle><path d="m117.9 72.349a6.262 6.262 0 1 1 6.262-6.262 6.262 6.262 0 0 1 -6.262 6.262z"></path><circle cx="14.27" cy="66.087" r="10.436" transform="matrix(.924 -.383 .383 .924 -24.204 10.491)"></circle><circle cx="102.727" cy="102.727" r="7.305"></circle><circle cx="29.447" cy="29.447" r="11.479"></circle></g><path d="m29.447 32.926a3.48 3.48 0 1 1 2.46-1.019 3.465 3.465 0 0 1 -2.46 1.019z" fill="#47568c"></path><path d="m15.583 67.837h-2.625a1.75 1.75 0 1 1 0-3.5h2.625a1.75 1.75 0 0 1 0 3.5z" fill="#47568c"></path><path d="m30.759 104.477h-2.625a1.75 1.75 0 1 1 0-3.5h2.625a1.75 1.75 0 0 1 0 3.5z" fill="#47568c"></path><path d="m67.4 119.654h-2.626a1.75 1.75 0 0 1 0-3.5h2.626a1.75 1.75 0 0 1 0 3.5z" fill="#47568c"></path><path d="m104.04 104.477h-2.625a1.75 1.75 0 1 1 0-3.5h2.625a1.75 1.75 0 0 1 0 3.5z" fill="#47568c"></path></g><g><path d="m59 26.659a1.75 1.75 0 1 0 1.741-3.036 10.815 10.815 0 0 1 -2.794-2.3 1.75 1.75 0 0 0 -2.647 2.29 14.334 14.334 0 0 0 3.7 3.046z"></path><path d="m66.087 0a14.289 14.289 0 0 0 -14.272 14.27 1.75 1.75 0 0 0 3.5 0 10.773 10.773 0 1 1 15.623 9.622 1.75 1.75 0 1 0 1.578 3.124 14.275 14.275 0 0 0 -6.429-27.016z"></path><path d="m66.087 20.543a6.273 6.273 0 1 0 -6.272-6.273 6.28 6.28 0 0 0 6.272 6.273zm0-9.046a2.773 2.773 0 1 1 -2.772 2.773 2.776 2.776 0 0 1 2.772-2.77z"></path><path d="m66.087 107.806a10.1 10.1 0 1 0 10.1 10.1 10.11 10.11 0 0 0 -10.1-10.1zm0 16.7a6.6 6.6 0 1 1 6.6-6.6 6.606 6.606 0 0 1 -6.6 6.594z"></path><path d="m102.727 36.412a6.946 6.946 0 0 0 4.927-2.038 6.976 6.976 0 1 0 -4.928 2.038zm-2.452-9.412a3.468 3.468 0 1 1 0 4.9 3.457 3.457 0 0 1 0-4.9z"></path><path d="m21.568 94.849a11.142 11.142 0 1 0 15.758 0 11.069 11.069 0 0 0 -15.758 0zm13.283 13.282a7.638 7.638 0 1 1 0-10.808 7.591 7.591 0 0 1 0 10.808z"></path><path d="m117.9 58.076a8.012 8.012 0 1 0 8.011 8.011 8.02 8.02 0 0 0 -8.011-8.011zm0 12.523a4.512 4.512 0 1 1 4.511-4.512 4.516 4.516 0 0 1 -4.511 4.513z"></path><path d="m26.456 66.087a12.186 12.186 0 1 0 -12.186 12.186 12.2 12.2 0 0 0 12.186-12.186zm-12.186 8.686a8.686 8.686 0 1 1 8.686-8.686 8.7 8.7 0 0 1 -8.686 8.686z"></path><path d="m109.862 100.373a1.751 1.751 0 0 0 -1.6 1.89 5.555 5.555 0 1 1 -5.536-5.091 1.75 1.75 0 0 0 0-3.5 9.056 9.056 0 1 0 9.024 8.3 1.75 1.75 0 0 0 -1.888-1.599z"></path><path d="m20.092 20.092a13.229 13.229 0 1 0 18.709 0 13.244 13.244 0 0 0 -18.709 0zm16.235 16.235a9.725 9.725 0 1 1 0-13.76 9.742 9.742 0 0 1 0 13.76z"></path><path d="m29.447 24.217a5.23 5.23 0 1 0 3.7 1.532 5.215 5.215 0 0 0 -3.7-1.532zm1.223 6.453a1.731 1.731 0 1 1 0-2.446 1.726 1.726 0 0 1 0 2.446z"></path><path d="m15.583 64.337h-2.625a1.75 1.75 0 1 0 0 3.5h2.625a1.75 1.75 0 0 0 0-3.5z"></path><path d="m30.759 100.977h-2.625a1.75 1.75 0 1 0 0 3.5h2.625a1.75 1.75 0 0 0 0-3.5z"></path><path d="m67.4 116.154h-2.626a1.75 1.75 0 0 0 0 3.5h2.626a1.75 1.75 0 0 0 0-3.5z"></path><path d="m101.415 100.977a1.75 1.75 0 1 0 0 3.5h2.625a1.75 1.75 0 0 0 0-3.5z"></path></g></g></svg>